<?xml version="1.0" encoding="UTF-8"?>
<svg width="70.05mm" height="75.12mm" version="1.1" viewBox="0 0 70.05 75.12" xmlns="http://www.w3.org/2000/svg"><g transform="translate(-15.593 -8.7288)" style="mix-blend-mode:normal"><g fill="#ed9000" stroke-width=".265"><path transform="translate(-90.788 -2.7697)" d="m144.1 39.517c0.59503 9.2055 0.59503 27.056 0.31501 36.157s-0.84004 9.4505-1.7151 9.8005-2.0651 0.70003-3.3602 0.91004c-1.2951 0.21001-2.6951 0.28002-4.3752 0.14-1.6801-0.14001-3.6402-0.49002-5.4953-0.94505s-3.6052-1.015-5.8803-2.1001c-2.2752-1.0851-5.0752-2.6951-6.8253-4.3052s-2.4501-3.2202-3.2202-5.1103-1.6101-4.0602-2.4851-6.5103-1.7851-5.1802-2.5551-7.7354-1.4001-4.9352-1.7501-6.9304c-0.35001-1.9951-0.42002-3.6052-0.35001-5.4603 0.07-1.8551 0.28001-3.9552 0.94506-6.3703 0.66504-2.4152 1.7851-5.1452 3.2202-7.3854s3.1852-3.9902 5.8103-5.2503c2.6252-1.2601 6.1253-2.0301 9.1355-2.3101 3.0102-0.28001 5.5303-0.07001 7.7004 0.31502 2.1701 0.38503 3.9902 0.94504 5.2503 1.4351 1.2601 0.49003 1.9601 0.91004 2.9052 1.4001 0.94506 0.49003 2.1351 1.0501 2.7301 10.256z"/><path transform="matrix(-1 0 0 1 192.02 -2.7488)" d="m144.1 39.517c0.59503 9.2055 0.59503 27.056 0.31501 36.157s-0.84004 9.4505-1.7151 9.8005-2.0651 0.70003-3.3602 0.91004c-1.2951 0.21001-2.6951 0.28002-4.3752 0.14-1.6801-0.14001-3.6402-0.49002-5.4953-0.94505s-3.6052-1.015-5.8803-2.1001c-2.2752-1.0851-5.0752-2.6951-6.8253-4.3052s-2.4501-3.2202-3.2202-5.1103-1.6101-4.0602-2.4851-6.5103-1.7851-5.1802-2.5551-7.7354-1.4001-4.9352-1.7501-6.9304c-0.35001-1.9951-0.42002-3.6052-0.35001-5.4603 0.07-1.8551 0.28001-3.9552 0.94506-6.3703 0.66504-2.4152 1.7851-5.1452 3.2202-7.3854s3.1852-3.9902 5.8103-5.2503c2.6252-1.2601 6.1253-2.0301 9.1355-2.3101 3.0102-0.28001 5.5303-0.07001 7.7004 0.31502 2.1701 0.38503 3.9902 0.94504 5.2503 1.4351 1.2601 0.49003 1.9601 0.91004 2.9052 1.4001 0.94506 0.49003 2.1351 1.0501 2.7301 10.256z"/><path transform="translate(-90.431 -2.7697)" d="m138.52 28.058c0.29884 0.08633 0.89653 0.259 1.647 0.33205 0.75044 0.07305 1.6536 0.04649 2.3177-0.0332 0.6641-0.07969 1.0891-0.21251 1.4046-0.3088 0.31545-0.0963 0.52132-0.15606 0.80356 0.08966 0.28225 0.24572 0.64086 0.79691 0.21914 1.4677-0.42172 0.67075-1.6237 1.461-3.3272 1.4112-1.7034-0.04982-3.9082-0.93969-4.5524-1.5872-0.64416-0.6475 0.27227-1.0526 0.7305-1.2551s0.45823-0.20255 0.75708-0.11622z"/></g><g stroke-width=".265"><ellipse cx="39.09" cy="44.412" rx="2.8268" ry="6.4759" fill="#1a1a1a"/><ellipse cx="61.277" cy="44.237" rx="2.8268" ry="6.4759" fill="#1a1a1a"/><circle cx="37.66" cy="41.355" r=".60908" fill="#fff"/><ellipse cx="59.79" cy="41.186" rx=".60908" ry=".64292" fill="#fff"/></g><path d="m59.275 58.63a9.2138 5.8908 0 0 1-4.6069 5.1016 9.2138 5.8908 0 0 1-9.2138 0 9.2138 5.8908 0 0 1-4.6069-5.1016h9.2138z" stroke-width=".3462"/><path transform="translate(-89.723 -2.5521)" d="m140.63 24.884c0.0446-0.83778 0.13369-2.5133 0.57042-4.4563 0.43672-1.943 1.221-4.1532 1.7647-5.4901 0.54367-1.3369 0.84669-1.8003 1.0071-2.0321 0.16041-0.23173 0.17831-0.23173 0.8111 0.44564s1.8805 2.032 2.5044 2.7896c0.62388 0.75757 0.62388 0.91799 0.27628 1.3458-0.34759 0.42781-1.0428 1.123-1.7736 1.9429-0.73084 0.81996-1.4973 1.7647-2.2281 2.8698-0.73083 1.1052-1.426 2.3707-1.836 3.0392-0.40997 0.66844-0.53475 0.73974-0.67735 0.70409-0.1426-0.03565-0.30303-0.17825-0.38324-0.24955-0.0802-0.0713-0.0802-0.0713-0.0357-0.90908z" fill="#4c3216" stroke-width=".265"/></g></svg>
