<?xml version="1.0" encoding="UTF-8"?>
<svg width="70.05mm" height="73.635mm" version="1.1" viewBox="0 0 70.05 73.635" xmlns="http://www.w3.org/2000/svg"><g transform="translate(-106.38 -12.983)" style="mix-blend-mode:normal"><g fill="#1520a6" stroke-width=".265"><path d="m144.1 39.517c0.59503 9.2055 0.59503 27.056 0.31501 36.157s-0.84004 9.4505-1.7151 9.8005-2.0651 0.70003-3.3602 0.91004c-1.2951 0.21001-2.6951 0.28002-4.3752 0.14-1.6801-0.14001-3.6402-0.49002-5.4953-0.94505s-3.6052-1.015-5.8803-2.1001c-2.2752-1.0851-5.0752-2.6951-6.8253-4.3052s-2.4501-3.2202-3.2202-5.1103-1.6101-4.0602-2.4851-6.5103-1.7851-5.1802-2.5551-7.7354-1.4001-4.9352-1.7501-6.9304c-0.35001-1.9951-0.42002-3.6052-0.35001-5.4603 0.07-1.8551 0.28001-3.9552 0.94506-6.3703 0.66504-2.4152 1.7851-5.1452 3.2202-7.3854s3.1852-3.9902 5.8103-5.2503c2.6252-1.2601 6.1253-2.0301 9.1355-2.3101 3.0102-0.28001 5.5303-0.07001 7.7004 0.31502 2.1701 0.38503 3.9902 0.94504 5.2503 1.4351 1.2601 0.49003 1.9601 0.91004 2.9052 1.4001 0.94506 0.49003 2.1351 1.0501 2.7301 10.256z"/><path transform="matrix(-1 0 0 1 282.81 .020899)" d="m144.1 39.517c0.59503 9.2055 0.59503 27.056 0.31501 36.157s-0.84004 9.4505-1.7151 9.8005-2.0651 0.70003-3.3602 0.91004c-1.2951 0.21001-2.6951 0.28002-4.3752 0.14-1.6801-0.14001-3.6402-0.49002-5.4953-0.94505s-3.6052-1.015-5.8803-2.1001c-2.2752-1.0851-5.0752-2.6951-6.8253-4.3052s-2.4501-3.2202-3.2202-5.1103-1.6101-4.0602-2.4851-6.5103-1.7851-5.1802-2.5551-7.7354-1.4001-4.9352-1.7501-6.9304c-0.35001-1.9951-0.42002-3.6052-0.35001-5.4603 0.07-1.8551 0.28001-3.9552 0.94506-6.3703 0.66504-2.4152 1.7851-5.1452 3.2202-7.3854s3.1852-3.9902 5.8103-5.2503c2.6252-1.2601 6.1253-2.0301 9.1355-2.3101 3.0102-0.28001 5.5303-0.07001 7.7004 0.31502 2.1701 0.38503 3.9902 0.94504 5.2503 1.4351 1.2601 0.49003 1.9601 0.91004 2.9052 1.4001 0.94506 0.49003 2.1351 1.0501 2.7301 10.256z"/><path d="m138.52 28.058c0.29884 0.08633 0.89653 0.259 1.647 0.33205 0.75044 0.07305 1.6536 0.04649 2.3177-0.0332 0.6641-0.07969 1.0891-0.21251 1.4046-0.3088 0.31545-0.0963 0.52132-0.15606 0.80356 0.08966 0.28225 0.24572 0.64086 0.79691 0.21914 1.4677-0.42172 0.67075-1.6237 1.461-3.3272 1.4112-1.7034-0.04982-3.9082-0.93969-4.5524-1.5872-0.64416-0.6475 0.27227-1.0526 0.7305-1.2551s0.45823-0.20255 0.75708-0.11622z"/></g><g stroke-width=".265"><ellipse cx="129.88" cy="47.182" rx="2.8268" ry="6.4759" fill="#1a1a1a"/><ellipse cx="152.07" cy="47.006" rx="2.8268" ry="6.4759" fill="#1a1a1a"/><circle cx="128.45" cy="44.124" r=".60908" fill="#fff"/><ellipse cx="150.58" cy="43.955" rx=".60908" ry=".64292" fill="#fff"/></g><path d="m150.06 61.4a9.2138 5.8908 0 0 1-4.6069 5.1016 9.2138 5.8908 0 0 1-9.2138 0 9.2138 5.8908 0 0 1-4.6069-5.1016h9.2138z" stroke-width=".3462"/></g></svg>
