<?xml version="1.0" encoding="UTF-8"?>
<svg width="79.411mm" height="106.28mm" version="1.1" viewBox="0 0 79.411 106.28" xmlns="http://www.w3.org/2000/svg"><g transform="translate(-9.5539 -90.843)" style="mix-blend-mode:normal"><g stroke-width=".265"><path transform="translate(-89.611 -2.6503)" d="m142.19 130.15c0.47155 14.587 0.91166 41.433 1.0688 54.983 0.15718 13.549 0.0314 13.801-1.3518 14.052-1.3832 0.2515-4.0238 0.50299-7.7963 0.50298-3.7724 0-8.6764-0.25149-13.078-1.1003-4.4012-0.8488-8.2992-2.2949-11.411-4.3068-3.1122-2.012-5.4385-4.5897-7.2304-8.205-1.7919-3.6153-3.0493-8.2678-3.2065-12.512-0.15718-4.244 0.7859-8.0792 2.2006-11.16 1.4147-3.0808 3.3008-5.4071 5.1242-7.419 1.8233-2.012 3.5838-3.7095 5.1242-6.3188 1.5404-2.6093 2.8607-6.1301 3.7409-9.8082s1.3203-7.5133 1.8862-11.003c0.56587-3.4895 1.2575-6.6331 2.3263-9.3367s2.5149-4.967 4.1496-6.3502c1.6347-1.3832 3.458-1.8862 5.3756-2.3263 1.9177-0.44011 3.9296-0.81734 5.69-1.0374 1.7605-0.22006 3.2694-0.28293 4.181-0.18862 0.91167 0.0943 1.226 0.3458 1.4146 0.75448s0.2515 0.97453 0.53443 2.4206c0.28294 1.4461 0.78591 3.7724 1.2575 18.359z" fill="#1520a6"/><path transform="matrix(-1 0 0 1 188.13 -2.5593)" d="m142.19 130.15c0.47155 14.587 0.91166 41.433 1.0688 54.983 0.15718 13.549 0.0314 13.801-1.3518 14.052-1.3832 0.2515-4.0238 0.50299-7.7963 0.50298-3.7724 0-8.6764-0.25149-13.078-1.1003-4.4012-0.8488-8.2992-2.2949-11.411-4.3068-3.1122-2.012-5.4385-4.5897-7.2304-8.205-1.7919-3.6153-3.0493-8.2678-3.2065-12.512-0.15718-4.244 0.7859-8.0792 2.2006-11.16 1.4147-3.0808 3.3008-5.4071 5.1242-7.419 1.8233-2.012 3.5838-3.7095 5.1242-6.3188 1.5404-2.6093 2.8607-6.1301 3.7409-9.8082s1.3203-7.5133 1.8862-11.003c0.56587-3.4895 1.2575-6.6331 2.3263-9.3367s2.5149-4.967 4.1496-6.3502c1.6347-1.3832 3.458-1.8862 5.3756-2.3263 1.9177-0.44011 3.9296-0.81734 5.69-1.0374 1.7605-0.22006 3.2694-0.28293 4.181-0.18862 0.91167 0.0943 1.226 0.3458 1.4146 0.75448s0.2515 0.97453 0.53443 2.4206c0.28294 1.4461 0.78591 3.7724 1.2575 18.359z" fill="#1520a6"/><path d="m47.136 133.85a5.3483 9.3596 0 0 1-5.348 9.3596 5.3483 9.3596 0 0 1-5.3487-9.3583 5.3483 9.3596 0 0 1 5.3472-9.3609 5.3483 9.3596 0 0 1 5.3494 9.357l-5.3483 3e-3z" fill="#1a1a1a"/><path d="m62.901 133.39a5.3483 9.3596 0 0 1-5.348 9.3596 5.3483 9.3596 0 0 1-5.3487-9.3583 5.3483 9.3596 0 0 1 5.3472-9.3609 5.3483 9.3596 0 0 1 5.3494 9.357l-5.3483 3e-3z" fill="#1a1a1a"/><path d="m40.21 128.82a0.93476 1.0997 0 0 1-0.93469 1.0997 0.93476 1.0997 0 0 1-0.93482-1.0996 0.93476 1.0997 0 0 1 0.93456-1.0999 0.93476 1.0997 0 0 1 0.93495 1.0994l-0.93476 3e-4z" fill="#fff"/><path d="m55.979 128.87a0.93476 1.0997 0 0 1-0.93469 1.0997 0.93476 1.0997 0 0 1-0.93482-1.0996 0.93476 1.0997 0 0 1 0.93456-1.0999 0.93476 1.0997 0 0 1 0.93495 1.0994l-0.93476 3.1e-4z" fill="#fff"/></g><path d="m58.993 146.9a9.2138 5.8908 0 0 1-4.6069 5.1016 9.2138 5.8908 0 0 1-9.2138 0 9.2138 5.8908 0 0 1-4.6069-5.1016h9.2138z" stroke-width=".3462"/><path transform="translate(-92.175 78.077)" d="m140.63 24.884c0.0446-0.83778 0.13369-2.5133 0.57042-4.4563 0.43672-1.943 1.221-4.1532 1.7647-5.4901 0.54367-1.3369 0.84669-1.8003 1.0071-2.0321 0.16041-0.23173 0.17831-0.23173 0.8111 0.44564s1.8805 2.032 2.5044 2.7896c0.62388 0.75757 0.62388 0.91799 0.27628 1.3458-0.34759 0.42781-1.0428 1.123-1.7736 1.9429-0.73084 0.81996-1.4973 1.7647-2.2281 2.8698-0.73083 1.1052-1.426 2.3707-1.836 3.0392-0.40997 0.66844-0.53475 0.73974-0.67735 0.70409-0.1426-0.03565-0.30303-0.17825-0.38324-0.24955-0.0802-0.0713-0.0802-0.0713-0.0357-0.90908z" fill="#4c3216" stroke-width=".265"/><g fill="#ed9000" stroke-width=".49043"><ellipse cx="31.042" cy="139.1" rx="1.6199" ry="1.6589"/><ellipse cx="27.39" cy="144.24" rx="1.6199" ry="1.6589"/><ellipse cx="30.408" cy="150.19" rx="1.6199" ry="1.6589"/><ellipse cx="34.847" cy="145.02" rx="1.6199" ry="1.6589"/><ellipse cx="62.223" cy="146.2" rx="1.6199" ry="1.6589"/><ellipse cx="65.559" cy="138.94" rx="1.6199" ry="1.6589"/><ellipse cx="69.189" cy="144.43" rx="1.6199" ry="1.6589"/><ellipse cx="72.833" cy="149.26" rx="1.6199" ry="1.6589"/></g></g></svg>
